<svg width="17" height="16" viewBox="0 0 17 16" fill="none" xmlns="http://www.w3.org/2000/svg"><g clip-path="url(#clip0_96_3861)"><path d="M6.94275 0.659956C4.90942 1.11329 3.24275 2.23996 2.09609 3.94662C0.0894203 6.95329 0.48942 10.9866 3.04942 13.56C3.81609 14.3333 4.98275 15.08 5.86275 15.3666C6.18942 15.4733 6.22942 15.4733 6.37609 15.3733C6.53609 15.2666 6.54275 15.24 6.54275 14.4733V13.6866L5.95609 13.72C5.26942 13.7533 4.73609 13.6333 4.41609 13.36C4.30275 13.2666 4.08275 12.9466 3.92942 12.6533C3.67609 12.16 3.48942 11.9333 2.96942 11.4733C2.79609 11.32 2.78942 11.3133 2.90942 11.2266C3.19609 11.0133 3.77609 11.22 4.14275 11.66C4.78275 12.44 5.02942 12.6466 5.39609 12.7266C5.72275 12.7933 6.02275 12.7666 6.47609 12.6333C6.53609 12.6133 6.61609 12.4733 6.65609 12.3133C6.69609 12.16 6.80275 11.9266 6.88942 11.8L7.04942 11.5666L6.50942 11.46C5.37609 11.2266 4.67609 10.82 4.21609 10.1266C3.78942 9.48662 3.64942 8.93329 3.64275 7.89996C3.64275 6.92662 3.74942 6.52662 4.16942 5.97996C4.35609 5.73996 4.37609 5.66662 4.32275 5.52662C4.22275 5.28662 4.24942 4.27329 4.35609 3.96662C4.44275 3.73996 4.48942 3.69996 4.66942 3.67996C4.96942 3.64662 5.52942 3.83996 6.09609 4.15996L6.58275 4.43996L7.00942 4.33996C7.61609 4.19996 9.43609 4.20662 9.98275 4.33996L10.3961 4.44662L10.7828 4.21329C11.2961 3.90662 11.9494 3.66662 12.2761 3.66662C12.5361 3.66662 12.5361 3.67329 12.6428 4.01329C12.7561 4.40662 12.7761 5.11996 12.6761 5.45996C12.6228 5.65996 12.6361 5.71996 12.7828 5.91329C13.5094 6.87329 13.5894 8.46662 12.9761 9.77329C12.5628 10.6333 11.6894 11.2333 10.5161 11.4533L9.95609 11.56L10.1628 11.9266L10.3761 12.3L10.3961 13.7866L10.4228 15.2733L10.5894 15.38C10.7428 15.48 10.7761 15.48 11.0961 15.3666C11.6294 15.1866 12.5428 14.6933 13.0428 14.3133C16.0161 12.0866 16.9761 8.09329 15.3294 4.77329C14.3628 2.81996 12.5361 1.31996 10.4428 0.759956C9.52942 0.519957 7.80942 0.466623 6.94275 0.659956Z" fill="white"/></g><defs><clipPath id="clip0_96_3861"><rect width="16" height="16" fill="white" transform="translate(0.476074)"/></clipPath></defs></svg>
