<svg width="16" height="16" viewBox="0 0 16 16" fill="none" xmlns="http://www.w3.org/2000/svg"><path d="M0.570801 1.57451C0.570801 0.981233 1.06394 0.5 1.67228 0.5H14.3747C14.9831 0.5 15.4762 0.981233 15.4762 1.57451V14.4255C15.4762 15.019 14.9831 15.5 14.3747 15.5H1.67228C1.06394 15.5 0.570801 15.019 0.570801 14.4255V1.57451Z" fill="white"/><path fill-rule="evenodd" clip-rule="evenodd" d="M5.0895 13.0566V6.2833H2.83816V13.0566H5.0895ZM3.96382 5.35852C4.7489 5.35852 5.23756 4.8384 5.23756 4.1884C5.22292 3.52378 4.74891 3.01809 3.97871 3.01809C3.2086 3.01809 2.70508 3.52378 2.70508 4.1884C2.70508 4.8384 3.19362 5.35852 3.94915 5.35852H3.96382Z" fill="#0C1A31"/><path fill-rule="evenodd" clip-rule="evenodd" d="M6.33496 13.0566H8.58627V9.27412C8.58627 9.07169 8.6009 8.86945 8.66035 8.72474C8.8231 8.32027 9.19354 7.90137 9.81547 7.90137C10.6301 7.90137 10.956 8.52251 10.956 9.43306V13.0566H13.2071V9.1729C13.2071 7.09244 12.0964 6.12436 10.6152 6.12436C9.40072 6.12436 8.86753 6.80322 8.5713 7.26561H8.58633V6.2833H6.33502C6.36457 6.91887 6.33496 13.0566 6.33496 13.0566Z" fill="#0C1A31"/></svg>
