<svg width="19" height="14" viewBox="0 0 19 14" fill="none" xmlns="http://www.w3.org/2000/svg"><path d="M18.1823 2.53011C17.9683 1.7306 17.3399 1.1023 16.5404 0.888288C15.0928 0.5 9.28525 0.5 9.28525 0.5C9.28525 0.5 3.47777 0.5 2.0301 0.888288C1.2306 1.1023 0.602305 1.7306 0.388288 2.53011C1.16229e-07 3.97777 0 7 0 7C0 7 1.16229e-07 10.0222 0.388288 11.4699C0.602305 12.2694 1.2306 12.8977 2.0301 13.1117C3.47777 13.5 9.28525 13.5 9.28525 13.5C9.28525 13.5 15.0928 13.5 16.5404 13.1117C17.3399 12.8977 17.9683 12.2694 18.1823 11.4699C18.5706 10.0222 18.5706 7 18.5706 7C18.5706 7 18.569 3.97777 18.1823 2.53011Z" fill="white"/><path d="M7.42676 9.78539L12.2513 7.00014L7.42676 4.21484V9.78539Z" fill="#0C1A31"/></svg>