<svg xmlns="http://www.w3.org/2000/svg" xmlns:xlink="http://www.w3.org/1999/xlink" width="546" height="347" viewBox="0 0 546 347"><defs><clipPath id="a"><rect width="511" height="88" fill="none"/></clipPath></defs><g transform="translate(-1071 -186)"><g transform="translate(1 -40)"><g transform="translate(1070 226)" fill="#fff" stroke="#ededed" stroke-width="1"><rect width="546" height="347" rx="3" stroke="none"/><rect x="0.5" y="0.5" width="545" height="346" rx="2.5" fill="none"/></g><path d="M3,0H543a3,3,0,0,1,3,3V34a0,0,0,0,1,0,0H0a0,0,0,0,1,0,0V3A3,3,0,0,1,3,0Z" transform="translate(1070 226)" fill="#ededed"/></g><circle cx="5.5" cy="5.5" r="5.5" transform="translate(1083 198)" fill="#f06161"/><circle cx="5.5" cy="5.5" r="5.5" transform="translate(1100 198)" fill="#f0ca61"/><circle cx="5.5" cy="5.5" r="5.5" transform="translate(1117 198)" fill="#61f071"/><g transform="translate(10)"><rect width="211" height="18" rx="3" transform="translate(1083 244)" fill="#333" opacity="0.2"/><rect width="121" height="18" rx="3" transform="translate(1083 272)" fill="#333" opacity="0.2"/><g transform="translate(0 5)"><rect width="211" height="10" rx="3" transform="translate(1083 300)" fill="#333" opacity="0.1"/><rect width="211" height="10" rx="3" transform="translate(1083 318)" fill="#333" opacity="0.1"/><rect width="167" height="10" rx="3" transform="translate(1083 336)" fill="#333" opacity="0.1"/></g></g><g opacity="0.2"><g transform="translate(1344 244)" fill="#fff" stroke="#707070" stroke-width="1"><rect width="245" height="147" rx="3" stroke="none"/><rect x="0.5" y="0.5" width="244" height="146" rx="2.5" fill="none"/></g><line x2="245" y2="145.651" transform="translate(1344.5 244.674)" fill="none" stroke="#707070" stroke-width="1"/><line y1="145.651" x2="245" transform="translate(1344.5 244.674)" fill="none" stroke="#707070" stroke-width="1"/></g><g transform="translate(1093 369)" fill="#fff" stroke="#707070" stroke-width="1" opacity="0.6"><rect width="136" height="22" rx="3" stroke="none"/><rect x="0.5" y="0.5" width="135" height="21" rx="2.5" fill="none"/></g><rect width="70" height="22" rx="3" transform="translate(1234 369)" fill="#4177f0" opacity="0.2"/><g transform="translate(1093 431)" clip-path="url(#a)"><g transform="translate(-1093 -431)"><rect width="149" height="18" rx="3" transform="translate(1093 431)" fill="#333" opacity="0.2"/><g transform="translate(1093 464)"><rect width="149" height="10" rx="3" fill="#333" opacity="0.1"/><rect width="149" height="10" rx="3" transform="translate(0 18)" fill="#333" opacity="0.1"/><rect width="84" height="10" rx="3" transform="translate(0 36)" fill="#333" opacity="0.1"/></g></g><g transform="translate(-917 -431)"><rect width="149" height="18" rx="3" transform="translate(1093 431)" fill="#333" opacity="0.2"/><g transform="translate(1093 464)"><rect width="149" height="10" rx="3" fill="#333" opacity="0.1"/><rect width="149" height="10" rx="3" transform="translate(0 18)" fill="#333" opacity="0.1"/><rect width="84" height="10" rx="3" transform="translate(0 36)" fill="#333" opacity="0.1"/></g></g><g transform="translate(-741 -431)"><rect width="149" height="18" rx="3" transform="translate(1093 431)" fill="#333" opacity="0.2"/><g transform="translate(1093 464)"><rect width="149" height="10" rx="3" fill="#333" opacity="0.1"/><rect width="149" height="10" rx="3" transform="translate(0 18)" fill="#333" opacity="0.1"/><rect width="84" height="10" rx="3" transform="translate(0 36)" fill="#333" opacity="0.1"/></g></g></g></g></svg>